<svg xmlns="http://www.w3.org/2000/svg" xmlns:xlink="http://www.w3.org/1999/xlink" preserveAspectRatio="xMidYMid" width="66" height="106" viewBox="0 0 66 106" id="icon_ideas">
  <path d="M61.664,47.805 C60.003,51.016 56.109,58.079 53.455,64.794 C53.455,64.794 48.948,70.701 48.851,76.242 C48.851,76.242 48.651,99.729 48.651,99.729 C48.651,99.729 43.331,104.718 32.839,104.718 C32.802,104.718 32.710,104.718 32.526,104.718 C21.526,104.718 17.363,98.950 17.363,98.950 C17.363,98.950 16.995,75.598 16.995,75.598 C16.683,69.628 13.160,64.794 13.160,64.794 C10.506,58.079 5.362,51.016 3.701,47.805 C1.419,43.396 1.005,38.389 1.005,33.080 C1.005,15.362 14.105,0.997 31.824,0.997 C31.980,0.997 33.385,0.997 33.541,0.997 C51.261,0.997 64.985,15.362 64.985,33.080 C64.985,38.389 63.946,43.396 61.664,47.805 ZM23.094,96.890 C23.094,96.890 43.344,96.890 43.344,96.890 C44.449,96.890 45.344,95.995 45.344,94.890 C45.344,93.786 44.449,92.891 43.344,92.891 C43.344,92.891 23.094,92.891 23.094,92.891 C21.989,92.891 21.094,93.786 21.094,94.890 C21.094,95.995 21.989,96.890 23.094,96.890 ZM23.094,88.890 C23.094,88.890 43.344,88.890 43.344,88.890 C44.449,88.890 45.344,87.995 45.344,86.890 C45.344,85.787 44.449,84.891 43.344,84.891 C43.344,84.891 23.094,84.891 23.094,84.891 C21.989,84.891 21.094,85.787 21.094,86.890 C21.094,87.995 21.989,88.890 23.094,88.890 ZM23.094,80.890 C23.094,80.890 43.344,80.890 43.344,80.890 C44.449,80.890 45.344,79.996 45.344,78.891 C45.344,77.786 44.449,76.891 43.344,76.891 C43.344,76.891 23.094,76.891 23.094,76.891 C21.989,76.891 21.094,77.786 21.094,78.891 C21.094,79.996 21.989,80.890 23.094,80.890 ZM39.011,32.890 C34.010,34.557 20.344,29.223 20.344,29.223 C18.677,28.224 14.344,29.558 14.344,29.558 C15.677,31.557 26.677,54.558 26.677,56.557 C26.677,58.558 29.344,69.224 29.344,69.224 C34.677,79.891 33.677,65.224 33.677,65.224 C33.677,60.557 45.094,32.599 45.094,32.599 C47.427,26.933 39.011,32.890 39.011,32.890 ZM32.969,54.432 C32.969,54.432 36.344,64.557 30.011,55.558 C30.011,55.558 20.677,36.557 20.010,34.890 C20.010,34.890 22.010,34.473 24.010,36.140 C26.011,37.807 30.344,36.474 32.010,36.474 C33.677,36.474 36.010,37.558 39.011,35.891 C42.011,34.224 40.344,37.890 40.344,37.890 C40.344,37.890 33.969,52.766 32.969,54.432 ZM30.677,60.557 C34.677,59.557 34.677,64.557 32.010,67.558 C32.010,67.558 26.677,61.557 30.677,60.557 Z" fill-rule="evenodd"/>
</svg>
