<svg xmlns="http://www.w3.org/2000/svg" xmlns:xlink="http://www.w3.org/1999/xlink" preserveAspectRatio="xMidYMid" width="130" height="84" viewBox="0 0 130 84" id="icon_people">
  <path d="M109.184,82.751 C109.184,82.751 107.548,68.104 105.807,66.844 C105.065,65.916 104.211,63.920 95.868,58.729 C95.261,57.551 94.813,56.168 94.958,56.241 C95.197,56.360 94.898,54.502 94.898,54.502 C94.898,54.502 89.146,49.388 89.205,44.773 C89.266,40.159 89.205,34.724 89.205,34.724 C89.205,34.724 90.756,23.776 98.231,23.776 C98.231,23.776 104.019,25.798 104.019,25.798 C110.736,25.798 112.565,34.724 112.565,34.724 C112.565,34.724 112.565,45.448 112.565,45.448 C112.565,45.448 111.226,51.765 107.015,54.123 C107.015,54.123 106.716,55.981 106.955,55.861 C107.195,55.741 105.757,64.222 113.069,65.299 C120.380,66.378 124.469,70.895 125.847,72.213 C127.226,73.532 128.930,82.602 128.930,82.602 C128.930,82.602 109.184,82.751 109.184,82.751 ZM72.750,44.731 C73.091,44.560 71.377,56.297 81.784,57.832 C92.192,59.368 99.909,65.797 101.871,67.674 C103.833,69.550 104.940,82.769 104.940,82.769 C104.940,82.769 25.136,82.769 25.136,82.769 C25.136,82.769 24.357,72.068 27.757,67.674 C29.719,65.797 38.336,59.368 48.743,57.832 C59.150,56.297 56.664,44.767 57.005,44.937 C57.347,45.108 56.920,42.463 56.920,42.463 C56.920,42.463 49.053,35.186 49.138,28.616 C49.224,22.047 49.138,17.742 49.138,17.742 C49.138,17.742 50.025,0.993 60.665,0.993 C60.665,0.993 68.903,5.037 68.903,5.037 C78.464,5.037 80.846,17.742 80.846,17.742 C80.846,17.742 80.846,29.575 80.846,29.575 C80.846,29.575 78.829,38.901 72.835,42.258 C72.835,42.258 72.409,44.902 72.750,44.731 ZM35.040,54.502 C35.040,54.502 34.740,56.360 34.980,56.241 C35.123,56.168 34.968,57.218 34.194,59.104 C25.852,64.295 23.372,67.041 22.631,67.968 C20.056,71.895 20.754,82.751 20.754,82.751 C20.754,82.751 1.007,82.602 1.007,82.602 C1.007,82.602 2.712,73.532 4.090,72.213 C5.468,70.895 9.557,66.378 16.869,65.299 C24.180,64.222 22.742,56.741 22.982,56.860 C23.222,56.980 22.922,54.123 22.922,54.123 C18.711,51.765 17.038,45.448 17.038,45.448 C17.038,45.448 17.038,34.724 17.038,34.724 C17.038,34.724 19.202,25.798 25.919,25.798 C25.919,25.798 31.706,22.943 31.706,22.943 C39.182,22.943 40.732,34.724 40.732,34.724 C40.732,34.724 40.672,40.159 40.732,44.773 C40.792,49.388 35.040,54.502 35.040,54.502 Z" fill-rule="evenodd"/>
</svg>
