<svg xmlns="http://www.w3.org/2000/svg" xmlns:xlink="http://www.w3.org/1999/xlink" preserveAspectRatio="xMidYMid" width="137" height="136" viewBox="0 0 137 136" id="icon_strategy">
  <path d="M132.266,69.780 C129.016,89.281 114.437,97.983 114.437,97.983 C114.847,98.585 115.216,99.228 115.537,99.908 C118.829,106.886 115.841,115.210 108.864,118.502 C101.887,121.793 93.562,118.806 90.270,111.829 C86.979,104.851 89.966,96.526 96.944,93.235 C100.747,91.441 104.951,91.513 108.522,93.079 C122.772,85.204 123.836,72.220 123.836,72.220 C123.836,72.220 109.891,61.156 109.891,61.156 C109.891,61.156 104.141,69.156 104.141,69.156 C104.141,69.156 101.182,47.907 101.182,47.907 C101.182,47.907 121.391,48.156 121.391,48.156 C121.391,48.156 113.891,55.157 113.891,55.157 C113.891,55.157 132.266,69.780 132.266,69.780 ZM108.256,103.516 C106.783,100.395 103.058,99.058 99.936,100.531 C96.815,102.002 95.478,105.727 96.950,108.849 C98.424,111.971 102.148,113.308 105.270,111.835 C108.391,110.362 109.728,106.638 108.256,103.516 ZM94.790,51.873 C94.790,51.873 89.133,46.216 89.133,46.216 C89.133,46.216 83.565,51.784 83.565,51.784 C83.565,51.784 80.736,48.957 80.736,48.957 C80.736,48.957 86.393,43.300 86.393,43.300 C86.393,43.300 80.824,37.732 80.824,37.732 C80.824,37.732 83.742,34.991 83.742,34.991 C83.742,34.991 89.310,40.559 89.310,40.559 C89.310,40.559 94.967,34.902 94.967,34.902 C94.967,34.902 97.707,37.643 97.707,37.643 C97.707,37.643 92.050,43.300 92.050,43.300 C92.050,43.300 97.707,48.957 97.707,48.957 C97.707,48.957 94.790,51.873 94.790,51.873 ZM77.768,105.622 C78.413,105.962 79.039,106.357 79.641,106.808 C85.814,111.437 87.067,120.190 82.440,126.364 C77.813,132.536 69.057,133.789 62.884,129.162 C56.711,124.534 55.458,115.779 60.086,109.606 C62.609,106.242 66.357,104.339 70.246,104.053 C70.246,104.053 87.361,44.058 39.861,23.058 C38.194,26.058 37.182,35.489 37.182,35.489 C37.182,35.489 24.224,14.448 24.224,14.448 C24.224,14.448 45.141,4.032 45.141,4.032 C42.807,5.365 41.789,15.637 41.789,15.637 C41.789,15.637 94.935,34.372 77.768,105.622 ZM66.143,114.656 C64.073,117.418 64.633,121.334 67.395,123.405 C70.157,125.475 74.075,124.914 76.145,122.153 C78.215,119.391 77.655,115.473 74.893,113.403 C72.131,111.333 68.214,111.894 66.143,114.656 ZM18.790,59.873 C18.790,59.873 13.133,54.216 13.133,54.216 C13.133,54.216 7.565,59.784 7.565,59.784 C7.565,59.784 4.736,56.957 4.736,56.957 C4.736,56.957 10.393,51.300 10.393,51.300 C10.393,51.300 4.825,45.731 4.825,45.731 C4.825,45.731 7.741,42.991 7.741,42.991 C7.741,42.991 13.310,48.559 13.310,48.559 C13.310,48.559 18.967,42.902 18.967,42.902 C18.967,42.902 21.707,45.643 21.707,45.643 C21.707,45.643 16.050,51.300 16.050,51.300 C16.050,51.300 21.707,56.957 21.707,56.957 C21.707,56.957 18.790,59.873 18.790,59.873 ZM11.232,76.160 C11.232,76.160 24.050,68.929 25.069,68.342 C26.982,67.237 29.428,67.893 30.533,69.806 C32.533,73.270 29.285,74.978 29.285,74.978 C29.285,74.978 25.605,77.103 25.605,77.103 C25.605,77.103 36.774,99.956 36.774,99.956 C37.494,99.841 38.232,99.781 38.984,99.781 C46.699,99.781 52.953,106.035 52.953,113.749 C52.953,121.465 46.699,127.719 38.984,127.719 C31.270,127.719 25.016,121.465 25.016,113.749 C25.016,109.544 26.874,105.773 29.814,103.212 C29.814,103.212 18.614,80.995 18.614,80.995 C18.614,80.995 15.150,82.995 15.150,82.995 C11.686,84.994 9.749,81.639 9.749,81.639 C7.857,78.362 11.232,76.160 11.232,76.160 ZM39.141,120.406 C42.593,120.406 45.391,117.607 45.391,114.156 C45.391,110.704 42.593,107.906 39.141,107.906 C35.689,107.906 32.891,110.704 32.891,114.156 C32.891,117.607 35.689,120.406 39.141,120.406 ZM54.790,63.874 C54.790,63.874 49.133,58.217 49.133,58.217 C49.133,58.217 43.565,63.785 43.565,63.785 C43.565,63.785 40.736,60.956 40.736,60.956 C40.736,60.956 46.393,55.299 46.393,55.299 C46.393,55.299 40.824,49.730 40.824,49.730 C40.824,49.730 43.741,46.992 43.741,46.992 C43.741,46.992 49.310,52.560 49.310,52.560 C49.310,52.560 54.967,46.903 54.967,46.903 C54.967,46.903 57.707,49.643 57.707,49.643 C57.707,49.643 52.050,55.299 52.050,55.299 C52.050,55.299 57.707,60.956 57.707,60.956 C57.707,60.956 54.790,63.874 54.790,63.874 Z" fill-rule="evenodd"/>
</svg>
