<svg xmlns="http://www.w3.org/2000/svg" xmlns:xlink="http://www.w3.org/1999/xlink" preserveAspectRatio="xMidYMid" width="118" height="140" viewBox="0 0 118 140" id="icon_technology">
    <path d="M107.631,116.908 C107.247,118.290 106.681,119.593 105.984,120.811 C106.015,120.852 110.101,126.164 107.821,128.443 C107.821,128.443 106.696,129.569 106.696,129.569 C104.988,131.277 100.437,128.061 99.434,127.315 C98.149,128.034 96.765,128.599 95.304,128.972 C95.304,128.972 95.600,128.981 95.600,128.981 C95.600,128.981 94.798,135.017 91.563,135.017 C91.563,135.017 90.453,135.017 90.453,135.017 C87.986,135.017 86.612,129.847 86.374,128.870 C84.923,128.463 83.551,127.869 82.283,127.119 C82.283,127.119 82.506,127.356 82.506,127.356 C82.506,127.356 77.569,131.427 75.281,129.139 C75.281,129.139 74.270,128.296 74.270,128.296 C72.521,126.548 75.496,121.639 76.056,120.755 C75.380,119.560 74.828,118.285 74.451,116.935 C73.562,116.687 69.075,115.314 69.075,112.860 C69.075,112.860 69.075,111.750 69.075,111.750 C69.075,108.925 73.339,107.955 74.422,107.754 C74.795,106.392 75.344,105.106 76.020,103.901 C75.522,103.088 72.715,98.309 74.474,96.550 C74.474,96.550 75.542,95.652 75.542,95.652 C77.563,93.631 81.587,96.632 82.501,97.361 C83.718,96.665 85.022,96.101 86.403,95.716 C86.714,94.544 88.079,89.982 90.453,89.982 C90.453,89.982 91.563,89.982 91.563,89.982 C94.324,89.982 95.310,94.389 95.541,95.683 C96.944,96.062 98.270,96.624 99.507,97.325 C100.583,96.619 105.316,93.678 107.018,95.379 C107.018,95.379 108.030,96.448 108.030,96.448 C110.019,98.436 106.862,102.723 106.002,103.810 C106.696,105.029 107.258,106.334 107.639,107.716 C107.987,107.762 113.956,108.608 113.956,111.750 C113.956,111.750 113.956,112.860 113.956,112.860 C113.956,115.230 108.934,116.594 107.631,116.908 ZM91.477,104.970 C87.297,104.970 83.908,108.359 83.908,112.539 C83.908,116.719 87.297,120.213 91.477,120.213 C95.657,120.213 99.204,116.719 99.204,112.539 C99.204,108.359 95.657,104.970 91.477,104.970 ZM86.274,61.830 C85.471,64.741 84.301,67.498 82.837,70.065 C83.337,70.695 90.619,80.061 86.000,84.679 C86.000,84.679 83.650,87.031 83.650,87.031 C80.137,90.543 71.365,85.085 69.192,83.641 C66.536,85.136 63.675,86.310 60.654,87.094 C60.654,87.094 61.116,87.108 61.116,87.108 C61.116,87.108 59.439,99.726 52.678,99.726 C52.678,99.726 50.359,99.726 50.359,99.726 C45.229,99.726 42.360,89.021 41.843,86.907 C38.832,86.063 35.983,84.837 33.348,83.285 C33.348,83.285 33.752,83.714 33.752,83.714 C33.752,83.714 23.764,91.568 18.983,86.788 C18.983,86.788 16.869,85.030 16.869,85.030 C13.241,81.401 19.077,71.795 20.259,69.941 C18.847,67.445 17.712,64.771 16.923,61.951 C14.856,61.447 4.056,58.568 4.056,53.422 C4.056,53.422 4.056,51.103 4.056,51.103 C4.056,45.142 14.410,43.135 16.862,42.743 C17.639,39.900 18.768,37.204 20.177,34.687 C19.053,32.977 12.981,23.329 16.642,19.667 C16.642,19.667 18.874,17.790 18.874,17.790 C23.061,13.602 31.627,19.492 33.690,21.020 C36.245,19.551 38.993,18.379 41.895,17.570 C42.544,14.998 45.398,4.962 50.359,4.962 C50.359,4.962 52.678,4.962 52.678,4.962 C58.451,4.962 60.512,14.655 60.992,17.493 C63.937,18.289 66.727,19.458 69.320,20.932 C71.549,19.482 80.487,14.040 83.996,17.548 C83.996,17.548 86.110,19.780 86.110,19.780 C90.219,23.889 84.537,32.213 82.860,34.470 C84.320,37.036 85.485,39.792 86.284,42.701 C87.991,42.968 98.663,44.883 98.663,51.103 C98.663,51.103 98.663,53.422 98.663,53.422 C98.663,58.252 89.152,61.084 86.274,61.830 ZM51.185,34.832 C41.652,34.832 33.925,42.877 33.925,52.409 C33.925,61.941 41.652,69.911 51.185,69.911 C60.717,69.911 69.119,61.941 69.119,52.409 C69.119,42.877 60.717,34.832 51.185,34.832 Z" fill-rule="evenodd"/>
</svg>
