<svg xmlns="http://www.w3.org/2000/svg" xmlns:xlink="http://www.w3.org/1999/xlink" preserveAspectRatio="xMidYMid" width="80" height="86" viewBox="0 0 80 86">
  <defs>
    <style>

      .cls-3 {
        fill: #40d47c;
      }

      .cls-4 {
        fill: #ffffff;
      }
    </style>
  </defs>
  <g id="grupo-1">
    <circle id="circle-1" class="cls-3" cx="40" cy="40" r="40"/>
    <path d="M37.383,16.403 C34.963,16.403 35.336,17.485 34.033,17.672 C32.730,17.857 34.297,17.148 30.388,17.892 C26.480,18.637 25.099,23.661 24.913,25.523 C24.727,27.384 24.681,32.616 24.805,35.408 C25.177,37.083 23.874,37.083 23.874,37.083 C21.532,36.933 22.585,44.231 22.585,44.231 C22.922,46.029 22.464,46.925 25.932,48.318 C27.584,53.023 31.899,55.512 31.899,55.512 C31.899,55.512 31.920,58.416 31.986,60.565 C31.633,60.389 33.191,66.057 22.418,67.648 C11.646,69.237 9.583,72.726 7.553,74.668 C5.522,76.612 5.601,86.029 5.601,86.029 C5.601,86.029 75.122,86.066 75.122,86.066 C75.122,86.066 74.605,76.612 72.575,74.668 C70.544,72.726 68.331,69.237 57.559,67.648 C47.087,66.133 48.809,60.544 48.735,60.209 C48.754,59.362 48.867,55.771 48.867,55.771 C48.867,55.771 52.524,52.884 54.176,48.178 C56.775,46.537 57.765,46.308 58.195,44.417 C58.195,44.417 58.960,37.044 56.505,37.081 C56.505,37.081 55.342,37.456 55.715,35.780 C56.087,34.105 55.963,28.873 55.777,27.013 C55.590,25.151 55.871,19.831 51.963,19.086 C49.295,18.590 48.947,19.081 47.644,18.895 C46.341,18.709 44.790,15.335 42.371,15.335 C42.371,15.335 37.383,16.403 37.383,16.403 Z" id="path-1" class="cls-4" fill-rule="evenodd"/>
  </g>
</svg>
