<svg xmlns="http://www.w3.org/2000/svg" xmlns:xlink="http://www.w3.org/1999/xlink" preserveAspectRatio="xMidYMid" width="270" height="180" viewBox="0 0 270 180">
  <defs>
    <style>

      .cls-2 {
        fill: #000000;
        fill-opacity: 0.1;
      }
    </style>
  </defs>
  <path d="M260.000,120.002 C260.000,120.002 110.000,120.002 110.000,120.002 C104.477,120.002 100.000,115.523 100.000,110.001 C100.000,104.477 104.477,100.002 110.000,100.002 C110.000,100.002 260.000,100.002 260.000,100.002 C265.523,100.002 269.999,104.477 269.999,110.001 C269.999,115.523 265.523,120.002 260.000,120.002 ZM260.000,70.000 C260.000,70.000 110.000,70.000 110.000,70.000 C104.477,70.000 100.000,65.523 100.000,59.999 C100.000,54.477 104.477,50.000 110.000,50.000 C110.000,50.000 260.000,50.000 260.000,50.000 C265.523,50.000 269.999,54.477 269.999,59.999 C269.999,65.523 265.523,70.000 260.000,70.000 ZM260.000,20.001 C260.000,20.001 110.000,20.001 110.000,20.001 C104.477,20.001 100.000,15.521 100.000,9.999 C100.000,4.477 104.477,0.002 110.000,0.002 C110.000,0.002 260.000,0.002 260.000,0.002 C265.523,0.002 269.999,4.477 269.999,9.999 C269.999,15.521 265.523,20.001 260.000,20.001 ZM60.000,179.999 C60.000,179.999 20.000,179.999 20.000,179.999 C8.954,179.999 -0.000,171.045 -0.000,159.999 C-0.000,159.999 -0.000,120.002 -0.000,120.002 C-0.000,108.956 8.954,100.002 20.000,100.002 C20.000,100.002 60.000,100.002 60.000,100.002 C71.046,100.002 80.000,108.956 80.000,120.002 C80.000,120.002 80.000,159.999 80.000,159.999 C80.000,171.045 71.046,179.999 60.000,179.999 ZM60.000,79.999 C60.000,79.999 20.000,79.999 20.000,79.999 C8.954,79.999 -0.000,71.045 -0.000,59.999 C-0.000,59.999 -0.000,20.001 -0.000,20.001 C-0.000,8.954 8.954,0.002 20.000,0.002 C20.000,0.002 60.000,0.002 60.000,0.002 C71.046,0.002 80.000,8.954 80.000,20.001 C80.000,20.001 80.000,59.999 80.000,59.999 C80.000,71.045 71.046,79.999 60.000,79.999 ZM110.000,150.001 C110.000,150.001 260.000,150.001 260.000,150.001 C265.523,150.001 269.999,154.477 269.999,159.999 C269.999,165.523 265.523,170.000 260.000,170.000 C260.000,170.000 110.000,170.000 110.000,170.000 C104.477,170.000 100.000,165.523 100.000,159.999 C100.000,154.477 104.477,150.001 110.000,150.001 Z" id="path-1" class="cls-2" fill-rule="evenodd"/>
</svg>
