<?xml version="1.0" encoding="utf-8"?>
<!-- Generator: Adobe Illustrator 18.0.0, SVG Export Plug-In . SVG Version: 6.00 Build 0)  -->
<!DOCTYPE svg PUBLIC "-//W3C//DTD SVG 1.1//EN" "http://www.w3.org/Graphics/SVG/1.1/DTD/svg11.dtd">
<svg version="1.1" id="logo_satisfation" xmlns="http://www.w3.org/2000/svg" xmlns:xlink="http://www.w3.org/1999/xlink" x="0px" y="0px"
	 viewBox="0 0 554.3 421" enable-background="new 0 0 554.3 421" xml:space="preserve">
<g>
	<path d="M551.4,149.1c-22.9,8.8-46.1,16.5-69.5,23l-17-11.9l10.1-21.7l-21.7-10.1l6.2-23.1l-23.1-6.2l2.1-23.9l-23.9-2.1l-2.1-23.9
		l-23.9,2.1l-6.2-23.1l-23.1,6.2l-10.1-21.7l-21.7,10.1L313.7,3.2l-19.6,13.7L277.2,0l-16.9,16.9L240.6,3.2l-13.7,19.6l-21.7-10.1
		L195,34.4l-23.1-6.2l-6.2,23.1l-23.9-2.1l-2.1,23.9l-23.9,2.1l2.1,23.9l-23.1,6.2l6.2,23.1l-21.7,10.1l10.1,21.7l-17,11.9
		c-23.5-6.5-46.7-14.2-69.5-23L0,148v113.4l1.4,0.5c16.7,6.5,33.7,12.3,50.8,17.5v25.7c21.7,6.7,43.7,12.4,65.8,17.1l-2.1,23.6
		l23.9,2.1l2.1,23.9l23.9-2.1l6.2,23.1l23.1-6.2l10.1,21.7l21.7-10.1l13.7,19.6l19.6-13.7l16.9,16.9l16.9-16.9l19.6,13.7l13.7-19.6
		l21.7,10.1l10.1-21.7l23.1,6.2l6.2-23.1l23.9,2.1l2.1-23.9l23.9-2.1l-2.1-23.6c22.2-4.7,44.1-10.4,65.8-17.1v-25.7
		c17.1-5.2,34-11.1,50.8-17.5l1.4-0.5V148L551.4,149.1z M550.1,258.5c-15.8,6.1-31.8,11.6-47.9,16.5v-78.7
		c-7.4,2.3-14.8,4.4-22.2,6.5l-9.2-9.2l12.1-17.3c22.7-6.3,45.1-13.7,67.2-22.1V258.5z M497.9,280.7V302c-13,3.9-26.1,7.5-39.3,10.7
		c-0.7,0.2-1.4,0.3-2.1,0.5c-8.2,2-16.5,3.8-24.8,5.6c-12,2.5-24,4.6-36.1,6.5c-2.4,0.4-4.7,0.7-7.1,1.1
		c-36.7,5.4-73.9,8.1-111.5,8.1c-37.5,0-74.7-2.7-111.5-8.1c-2.4-0.3-4.7-0.7-7.1-1.1c-12.1-1.9-24.1-4.1-36.1-6.5
		c-8.3-1.7-16.6-3.6-24.8-5.6c-0.7-0.2-1.4-0.3-2.1-0.5c-13.2-3.2-26.3-6.8-39.3-10.7v-21.2v-2.2v-2.2v-74.3
		c4.8,1.4,9.7,2.8,14.5,4.2c0.8,0.2,1.6,0.4,2.4,0.6c0.8,0.2,1.6,0.4,2.4,0.6c12.1,3.3,24.3,6.3,36.5,8.9c1.4,0.3,2.9,0.6,4.3,0.9
		c52.5,11.2,106.3,16.8,160.7,16.8c54.4,0,108.2-5.6,160.7-16.8c1.4-0.3,2.9-0.6,4.3-0.9c12.2-2.7,24.4-5.6,36.5-8.9
		c0.8-0.2,1.6-0.4,2.4-0.6c0.8-0.2,1.6-0.4,2.4-0.6c4.9-1.3,9.7-2.7,14.5-4.2v74.3v2.2V280.7z M433.8,342l-23.2,2l-2,23.2l-23.2-2
		l-6,22.5l-22.5-6l-9.8,21.1l-21.1-9.8l-13.3,19.1l-19.1-13.3L277.2,415l-16.5-16.5l-19.1,13.3l-13.3-19.1l-21.1,9.8l-9.8-21.1
		l-22.5,6l-6-22.5l-23.2,2l-2-23.2l-23.2-2l1.7-18.9c13.8,2.8,27.7,5.3,41.6,7.4c29.6,28,69.5,45.2,113.4,45.2
		c43.9,0,83.8-17.2,113.4-45.2c14-2.1,27.8-4.5,41.6-7.4L433.8,342z M383.1,331.5c-28.3,24.8-65.4,39.9-105.9,39.9
		c-40.5,0-77.6-15.1-105.9-39.9c34.9,4.8,70.2,7.2,105.9,7.2C312.9,338.7,348.2,336.3,383.1,331.5z M4.3,154.2
		c22.1,8.4,44.5,15.8,67.2,22.1l12.1,17.3l-9.2,9.2c-7.4-2-14.9-4.2-22.2-6.5V275c-16.1-5-32.1-10.5-47.9-16.5V154.2z M75.8,175
		l2-1.4l17.1-12L85,140.6l21.1-9.8l-6-22.5l22.5-6l-2-23.2l23.2-2l2-23.2l23.2,2l6-22.5l22.5,6l9.8-21.1l21.1,9.8l13.3-19.1
		l19.1,13.3L277.2,6l16.5,16.5l19.1-13.3L326,28.2l21.1-9.8l9.8,21.1l22.5-6l6,22.5l23.2-2l2,23.2l23.2,2l-2,23.2l22.5,6l-6,22.5
		l21.1,9.8l-9.8,21.1l17.1,12l2,1.4l-0.2,0.4l-1.9,2.7l-11.2,16l10,10c-10.9,2.9-21.9,5.6-33,8c0-0.5,0-1.1,0-1.6
		c0-8.1-0.6-16-1.7-23.8c-0.1-0.7-0.2-1.4-0.3-2.1c-0.1-0.7-0.2-1.4-0.3-2.1c-13.3-77.8-81.2-137.2-162.7-137.2
		c-81.5,0-149.4,59.4-162.7,137.2c-0.1,0.7-0.2,1.4-0.4,2.1c-0.1,0.7-0.2,1.4-0.3,2.1c-1.1,7.8-1.7,15.7-1.7,23.8c0,0.5,0,1.1,0,1.6
		c-11-2.4-22-5.1-33-8l10-10l-11.2-16l-1.9-2.7L75.8,175z M116.3,210.5c0-7.8,0.6-15.4,1.6-22.9c0.1-0.7,0.2-1.4,0.3-2.1
		c0.1-0.7,0.2-1.4,0.4-2.1c12.9-75.9,79.1-133.8,158.6-133.8c79.5,0,145.7,57.9,158.6,133.8c0.1,0.7,0.2,1.4,0.4,2.1
		c0.1,0.7,0.2,1.4,0.3,2.1c1.1,7.5,1.6,15.1,1.6,22.9c0,0.8,0,1.7,0,2.5c-52.5,11.2-106.2,16.9-160.8,16.9
		c-54.6,0-108.4-5.7-160.8-16.9C116.3,212.2,116.3,211.3,116.3,210.5z"/>
	<path d="M190,198.1v-0.9V195v-66.9h-5.1c-1.9,12.9-8.7,13.1-19.7,13.5v4.5h18.5v48.2v2.1v1.7H190z"/>
	<path d="M215.8,197.5c2.8,1.3,6.2,2.1,10.2,2.1c2.6,0,4.9-0.3,7-0.9c14.3-4.1,17.4-20.9,17.4-35.2c0-16.3-4-36-24.4-36
		c-20.4,0-24.4,19.7-24.4,36.1C201.5,176.7,204.1,192,215.8,197.5z M225.9,132.8c16,0,18.1,18.6,18.1,30.7
		c0,12.2-2.1,30.8-18.1,30.8c-16,0-18.1-18.6-18.1-30.8C207.8,151.4,209.9,132.8,225.9,132.8z"/>
	<path d="M281.5,199.6c20.4,0,24.4-19.7,24.4-36.1c0-16.3-4-36-24.4-36c-20.4,0-24.4,19.7-24.4,36.1
		C257.1,179.9,261.1,199.6,281.5,199.6z M281.5,132.8c16,0,18.1,18.6,18.1,30.7c0,12.2-2.1,30.8-18.1,30.8
		c-16,0-18.1-18.6-18.1-30.8C263.4,151.4,265.5,132.8,281.5,132.8z"/>
	<path d="M360.1,180.7c0,5.8,1.4,10.9,4.4,14.3c0.6,0.7,1.3,1.3,2.1,1.9c1,0.7,2.1,1.3,3.3,1.7c1.8,0.6,3.7,1,6,1
		c4.2,0,7.4-1.1,9.8-3c0.9-0.7,1.7-1.5,2.4-2.5c0.5-0.7,1-1.5,1.4-2.4c1.5-3.1,2.2-6.8,2.2-11c0-10.7-4.6-18.9-15.9-18.9
		C364.7,161.8,360.1,170,360.1,180.7z M386.6,180.8c0,4.2-1,9.1-4.1,11.9c-1.6,1.4-3.7,2.4-6.5,2.4c-1.7,0-3.2-0.4-4.4-0.9
		c-4.8-2.3-6.2-8.4-6.2-13.4c0-6.4,2.2-14.5,10.6-14.5C384.4,166.3,386.6,174.4,386.6,180.8z"/>
	<path d="M332.1,165.3c11.3,0,15.9-8.2,15.9-18.9c0-10.7-4.6-18.9-15.9-18.9c-11.3,0-15.9,8.2-15.9,18.9
		C316.2,157.1,320.8,165.3,332.1,165.3z M332.1,132c8.4,0,10.6,8.1,10.6,14.5c0,6.3-2.2,14.3-10.6,14.3s-10.6-8-10.6-14.3
		C321.5,140.1,323.7,132,332.1,132z"/>
	<polygon points="329,200.3 328.3,201.5 333.1,201.5 334.1,200 335.4,197.7 378.3,125.6 373.6,125.6 330.4,198.1 	"/>
	<path d="M81.5,248.3c0,0.7,0.1,1.3,0.1,1.9c0.2,1.2,0.5,2.3,0.9,3.3c1.6,3.6,4.9,5.9,8.4,7.7c0.2,0.1,0.4,0.2,0.5,0.3
		c0.6,0.3,1.3,0.6,1.9,1c2.3,1.2,4.6,2.3,7,3.5c3.9,1.9,8.7,5,8.7,9.8c0,6.2-6.8,7.1-11.2,6c-4.3-1.1-8.2-2.9-10.7-5.9
		c-0.5-0.6-1-1.3-1.4-2c-0.5-0.8-0.8-1.7-1.1-2.7c-0.4-1.3-0.6-2.8-0.5-4.5c-1.3-0.4-2.7-0.7-4-1.1c-0.2,3.9,0.7,7.2,2.5,10
		c0.4,0.7,0.9,1.3,1.4,1.9c0.5,0.6,1,1.1,1.6,1.7c2.9,2.7,6.9,4.7,11.3,5.8c15,3.7,16.2-5.5,16.2-8.4c0-7-5-10.8-11-13.8
		c-3.2-1.5-6.3-3.1-9.4-4.7c-0.3-0.1-0.6-0.3-0.9-0.4c-1.8-0.9-3.4-2-4.6-3.4c-1.1-1.3-1.8-2.9-1.8-4.8c0-6.4,5.1-7.2,10.6-5.8
		c6,1.5,11.3,6,11.6,12.6c1.3,0.3,2.7,0.6,4,0.9c0.1-8.7-7.3-15-15.7-17.1C84.1,237,81.5,244,81.5,248.3z"/>
	<path d="M119.2,289.1c1.7-4.1,3.4-8.1,5.1-12.2c0.6,0.1,1.2,0.2,1.8,0.4c1.7,0.4,3.4,0.7,5.1,1c4.2,0.8,8.3,1.6,12.5,2.4
		c1.7,4.8,3.5,9.5,5.2,14.2c1.5,0.3,2.9,0.5,4.4,0.7c-5.6-15.2-11.2-30.5-16.7-45.8c-1.5-0.3-3-0.6-4.5-0.9
		c-2.2,5-4.4,10.1-6.6,15.1c-0.8,1.9-1.6,3.8-2.5,5.6c-2.7,6.2-5.4,12.4-8.1,18.5C116.3,288.5,117.8,288.8,119.2,289.1z
		 M134.1,253.4c2.7,7.9,5.5,15.7,8.2,23.5c-4.3-0.8-8.5-1.6-12.8-2.5c-1.3-0.3-2.6-0.5-4-0.8c0.6-1.4,1.2-2.9,1.8-4.3
		C129.7,264.1,131.9,258.8,134.1,253.4z"/>
	<path d="M163.5,297.3c1.4,0.2,2.7,0.4,4.1,0.6c0-13.1,0-26.2,0-39.4c5,0.7,10,1.4,15,2.1c0-1.2,0-2.3,0-3.5
		c-11.4-1.4-22.7-3.1-34-5.1c0,1.2,0,2.3,0,3.5c5,0.9,9.9,1.7,14.9,2.4C163.5,271.1,163.5,284.2,163.5,297.3z"/>
	<path d="M190.9,258.1c-1.4-0.2-2.7-0.3-4.1-0.5c0,14.3,0,28.6,0,42.8c1.4,0.2,2.7,0.3,4.1,0.5C190.9,286.7,190.9,272.4,190.9,258.1
		z"/>
	<path d="M215.9,300.9c-7.9-0.6-14.2-4-14.1-12.8c-1.4-0.1-2.7-0.3-4.1-0.4c-0.5,10.4,7,15.8,17.2,16.6c15.3,1.2,16.5-8.2,16.5-11.1
		c0-7-5.1-10-11.2-12c-3.5-1.1-7-2.3-10.5-3.4c-3.5-1.2-6.5-3.1-6.5-7.2c0-6.4,5.2-8,10.8-7.5c6.1,0.5,11.5,4.2,11.8,10.7
		c1.4,0.1,2.7,0.2,4.1,0.3c0.1-8.8-7.4-13.8-16-14.5c-12.1-1.1-14.8,6.4-14.8,10.7c0,6.7,4.6,9.5,9.7,11.3c3.2,1.1,6.4,2.1,9.6,3.2
		c4,1.3,8.9,3.5,8.9,8.4C227.3,299.2,220.4,301.2,215.9,300.9z"/>
	<path d="M242.1,284.7c6.9,0.3,13.8,0.5,20.7,0.7c0-1.2,0-2.3,0-3.5c-6.9-0.1-13.8-0.3-20.7-0.7c0-5.2,0-10.3,0-15.5
		c7.8,0.4,15.5,0.6,23.3,0.7c0-1.2,0-2.3,0-3.5c-9.1-0.1-18.3-0.4-27.4-0.9c0,14.3,0,28.6,0,42.8c1.4,0.1,2.7,0.1,4.1,0.2
		C242.1,298.3,242.1,291.5,242.1,284.7z"/>
	<path d="M266.8,305.8c1.7-4.4,3.5-8.8,5.2-13.3c6.6,0,13.1,0,19.7-0.2c1.8,4.4,3.5,8.8,5.3,13.2c1.5,0,2.9-0.1,4.4-0.1
		c-5.6-14.1-11.3-28.2-16.9-42.5c-1.5,0-3.1,0-4.6,0c-5.8,14.3-11.6,28.5-17.4,42.7C263.8,305.8,265.3,305.8,266.8,305.8z
		 M281.9,267.1c2.8,7.3,5.6,14.6,8.4,21.8c-5.7,0.1-11.3,0.2-17,0.1C276.1,281.8,279,274.4,281.9,267.1z"/>
	<path d="M323.6,305.3c10.1-0.7,16.8-8,17.9-18.6c-1.4,0.1-2.7,0.2-4.1,0.4c-0.8,7.7-5.9,14.2-13.8,14.8c-11.4,0.7-16.3-8.6-16.3-18
		c0-9.4,4.8-19,16.3-19.7c6.3-0.4,11.8,2.9,13.2,9.4c1.4-0.1,2.7-0.2,4.1-0.3c-1.1-8.9-9.2-13.1-17.3-12.5
		c-13.6,0.8-20.4,11.6-20.4,23.3C303.2,295.6,310,306.1,323.6,305.3z"/>
	<path d="M358.2,301.3c1.4-0.2,2.7-0.3,4.1-0.5c0-13.1,0-26.2,0-39.4c5-0.6,10-1.2,15-1.9c0-1.2,0-2.3,0-3.5
		c-11.3,1.6-22.7,2.9-34.1,3.9c0,1.2,0,2.3,0,3.5c5-0.5,10-1,15-1.5C358.2,275.1,358.2,288.2,358.2,301.3z"/>
	<path d="M385.7,254.9c-1.4,0.2-2.7,0.4-4.1,0.6c0,14.3,0,28.6,0,42.8c1.4-0.2,2.7-0.4,4.1-0.6C385.7,283.5,385.7,269.2,385.7,254.9
		z"/>
	<path d="M412.5,294.1c0.8-0.2,1.6-0.3,2.3-0.6c2.5-0.7,4.8-1.9,6.8-3.2c7.3-5.1,10.9-13.9,10.9-22.5c0-0.5,0-0.9,0-1.4
		c-0.1-3-0.7-5.7-1.7-8.2c-2.8-6.6-8.9-10.5-18.3-8.8c-13.5,2.5-20.2,14.1-20.2,25.8C392.3,287,399.1,296.6,412.5,294.1z M412.5,253
		c10-1.9,14.8,4.5,15.8,12.6c0.1,1,0.2,2.1,0.2,3.1c0,7.8-3.3,16.4-10.9,20.3c-1.5,0.8-3.2,1.4-5,1.7c-11.3,2.1-16.1-6.7-16.1-16
		C396.4,265.3,401.2,255.1,412.5,253z"/>
	<path d="M438.8,287.8c1.3-0.3,2.7-0.6,4-0.9c0-12.1,0-24.2,0-36.2c0,0,0.1,0,0.1,0c8.2,10.2,16.4,20.2,24.6,30.1
		c0.6-0.1,1.1-0.3,1.7-0.5c0.7-0.2,1.4-0.4,2.1-0.6c0.2-0.1,0.5-0.1,0.7-0.2c0-1.1,0-2.2,0-3.3c0-6.8,0-13.7,0-20.5
		c0-0.9,0-1.7,0-2.6c0-0.9,0-1.7,0-2.6c0-4.6,0-9.2,0-13.8c0,0,0,0,0,0c0,0,0,0,0,0c-1.3,0.4-2.7,0.7-4,1.1c0,5.2,0,10.4,0,15.6
		c0,0.9,0,1.7,0,2.6s0,1.7,0,2.6c0,3,0,6.1,0,9.1c0,1.7,0,3.4,0,5c0,0.4,0,0.9,0,1.3c0,0-0.1,0-0.1,0c-1.2-1.5-2.4-3-3.7-4.5
		c-7-8.5-13.9-17-20.9-25.6c-1.5,0.3-3,0.7-4.5,1C438.8,259.3,438.8,273.6,438.8,287.8z"/>
</g>
</svg>
